<mxfile host="app.diagrams.net" agent="Mozilla/5.0 (Windows NT 10.0; Win64; x64) AppleWebKit/537.36 (KHTML, like Gecko) Chrome/137.0.0.0 Safari/537.36" version="27.2.0">
  <diagram name="Seite-1" id="-V9tJqXv5gJhkWXiTZhJ">
    <mxGraphModel dx="1531" dy="374" grid="1" gridSize="10" guides="1" tooltips="1" connect="1" arrows="1" fold="1" page="1" pageScale="1" pageWidth="827" pageHeight="1169" math="1" shadow="0">
      <root>
        <mxCell id="0" />
        <mxCell id="1" parent="0" />
        <mxCell id="IKXKUZDHcRSDr-55oXrN-7" value="" style="edgeStyle=orthogonalEdgeStyle;rounded=0;orthogonalLoop=1;jettySize=auto;html=1;endArrow=block;endFill=1;strokeWidth=2;" edge="1" parent="1" source="IKXKUZDHcRSDr-55oXrN-1" target="IKXKUZDHcRSDr-55oXrN-6">
          <mxGeometry relative="1" as="geometry" />
        </mxCell>
        <mxCell id="IKXKUZDHcRSDr-55oXrN-1" value="$$\text{train / validation / test split} $$" style="rounded=0;whiteSpace=wrap;html=1;strokeWidth=2;" vertex="1" parent="1">
          <mxGeometry x="200" y="90" width="200" height="30" as="geometry" />
        </mxCell>
        <mxCell id="IKXKUZDHcRSDr-55oXrN-3" value="$$(\mathbf{r_1},\,\dots,\,\mathbf{r_n})$$" style="text;html=1;align=center;verticalAlign=middle;whiteSpace=wrap;rounded=0;strokeWidth=2;" vertex="1" parent="1">
          <mxGeometry x="255" y="40" width="90" height="30" as="geometry" />
        </mxCell>
        <mxCell id="IKXKUZDHcRSDr-55oXrN-4" value="" style="endArrow=none;html=1;rounded=0;entryX=0.5;entryY=0;entryDx=0;entryDy=0;exitX=0.5;exitY=1;exitDx=0;exitDy=0;strokeWidth=2;" edge="1" parent="1" source="IKXKUZDHcRSDr-55oXrN-3">
          <mxGeometry width="50" height="50" relative="1" as="geometry">
            <mxPoint x="430" y="180" as="sourcePoint" />
            <mxPoint x="300" y="90" as="targetPoint" />
          </mxGeometry>
        </mxCell>
        <mxCell id="IKXKUZDHcRSDr-55oXrN-6" value="$$\text{data augmentation}$$&lt;div&gt;&lt;span style=&quot;background-color: transparent; color: light-dark(rgb(0, 0, 0), rgb(255, 255, 255));&quot;&gt;$$\text{using } \mathcal{D} \text{-matrices}$$&lt;/span&gt;&lt;/div&gt;" style="rounded=0;whiteSpace=wrap;html=1;strokeWidth=2;" vertex="1" parent="1">
          <mxGeometry x="-10" y="140" width="130" height="60" as="geometry" />
        </mxCell>
        <mxCell id="IKXKUZDHcRSDr-55oXrN-10" value="$$\text{random train sample}$$" style="text;strokeColor=none;align=center;fillColor=none;html=1;verticalAlign=middle;whiteSpace=wrap;rounded=0;strokeWidth=2;" vertex="1" parent="1">
          <mxGeometry x="72.5" y="80" width="105" height="30" as="geometry" />
        </mxCell>
        <mxCell id="IKXKUZDHcRSDr-55oXrN-19" value="" style="whiteSpace=wrap;html=1;aspect=fixed;strokeWidth=2;" vertex="1" parent="1">
          <mxGeometry x="219" y="220" width="20" height="20" as="geometry" />
        </mxCell>
        <mxCell id="IKXKUZDHcRSDr-55oXrN-20" value="" style="edgeStyle=elbowEdgeStyle;rounded=0;orthogonalLoop=1;jettySize=auto;html=1;endArrow=block;endFill=1;strokeWidth=2;entryX=-0.081;entryY=0.467;entryDx=0;entryDy=0;entryPerimeter=0;exitX=0.476;exitY=1.001;exitDx=0;exitDy=0;exitPerimeter=0;" edge="1" parent="1" source="IKXKUZDHcRSDr-55oXrN-6" target="IKXKUZDHcRSDr-55oXrN-19">
          <mxGeometry relative="1" as="geometry">
            <mxPoint x="185" y="230" as="sourcePoint" />
            <mxPoint x="40" y="265" as="targetPoint" />
            <Array as="points">
              <mxPoint x="52" y="210" />
            </Array>
          </mxGeometry>
        </mxCell>
        <mxCell id="IKXKUZDHcRSDr-55oXrN-22" value="" style="endArrow=classic;html=1;rounded=0;exitX=0.147;exitY=1.061;exitDx=0;exitDy=0;exitPerimeter=0;entryX=0.5;entryY=0;entryDx=0;entryDy=0;strokeWidth=2;" edge="1" parent="1" source="IKXKUZDHcRSDr-55oXrN-1">
          <mxGeometry width="50" height="50" relative="1" as="geometry">
            <mxPoint x="221.20000000000005" y="120.75" as="sourcePoint" />
            <mxPoint x="228.99999999999977" y="220" as="targetPoint" />
          </mxGeometry>
        </mxCell>
        <mxCell id="IKXKUZDHcRSDr-55oXrN-23" value="" style="endArrow=classic;html=1;rounded=0;exitX=0.106;exitY=1.025;exitDx=0;exitDy=0;exitPerimeter=0;entryX=0.474;entryY=-0.033;entryDx=0;entryDy=0;entryPerimeter=0;strokeWidth=2;" edge="1" parent="1" target="IKXKUZDHcRSDr-55oXrN-25">
          <mxGeometry width="50" height="50" relative="1" as="geometry">
            <mxPoint x="290" y="121" as="sourcePoint" />
            <mxPoint x="290" y="220" as="targetPoint" />
          </mxGeometry>
        </mxCell>
        <mxCell id="IKXKUZDHcRSDr-55oXrN-24" value="" style="endArrow=classic;html=1;rounded=0;exitX=0.106;exitY=1.025;exitDx=0;exitDy=0;exitPerimeter=0;entryX=0.848;entryY=-0.016;entryDx=0;entryDy=0;entryPerimeter=0;strokeWidth=2;" edge="1" parent="1" target="IKXKUZDHcRSDr-55oXrN-25">
          <mxGeometry width="50" height="50" relative="1" as="geometry">
            <mxPoint x="360" y="121" as="sourcePoint" />
            <mxPoint x="360" y="220" as="targetPoint" />
          </mxGeometry>
        </mxCell>
        <mxCell id="IKXKUZDHcRSDr-55oXrN-25" value="$$\text{build graph}$$" style="whiteSpace=wrap;html=1;strokeWidth=2;" vertex="1" parent="1">
          <mxGeometry x="200" y="270" width="190" height="60" as="geometry" />
        </mxCell>
        <mxCell id="IKXKUZDHcRSDr-55oXrN-26" value="" style="endArrow=classic;html=1;rounded=0;exitX=0.147;exitY=1.061;exitDx=0;exitDy=0;exitPerimeter=0;entryX=0.152;entryY=-0.014;entryDx=0;entryDy=0;entryPerimeter=0;strokeWidth=2;" edge="1" parent="1" target="IKXKUZDHcRSDr-55oXrN-25">
          <mxGeometry width="50" height="50" relative="1" as="geometry">
            <mxPoint x="228.86000000000024" y="240" as="sourcePoint" />
            <mxPoint x="228.86" y="338" as="targetPoint" />
          </mxGeometry>
        </mxCell>
        <mxCell id="IKXKUZDHcRSDr-55oXrN-27" value="$$\text{calculate normalization}$$ $$\mu_{i},&amp;nbsp; \text{std}_{i}$$" style="rounded=0;whiteSpace=wrap;html=1;strokeWidth=2;" vertex="1" parent="1">
          <mxGeometry x="-10" y="270" width="148.75" height="60" as="geometry" />
        </mxCell>
        <mxCell id="IKXKUZDHcRSDr-55oXrN-29" value="" style="endArrow=classic;html=1;rounded=0;exitX=0;exitY=0.5;exitDx=0;exitDy=0;strokeWidth=2;entryX=1.005;entryY=0.505;entryDx=0;entryDy=0;entryPerimeter=0;" edge="1" parent="1" source="IKXKUZDHcRSDr-55oXrN-25" target="IKXKUZDHcRSDr-55oXrN-27">
          <mxGeometry width="50" height="50" relative="1" as="geometry">
            <mxPoint x="210" y="280" as="sourcePoint" />
            <mxPoint x="140" y="300" as="targetPoint" />
          </mxGeometry>
        </mxCell>
      </root>
    </mxGraphModel>
  </diagram>
</mxfile>
